<?xml version="1.0" encoding="utf-8"?>
<!-- Svg Vector Icons : http://www.onlinewebfonts.com/icon -->
<!DOCTYPE svg PUBLIC "-//W3C//DTD SVG 1.1//EN" "http://www.w3.org/Graphics/SVG/1.1/DTD/svg11.dtd">
<svg version="1.1" xmlns="http://www.w3.org/2000/svg" xmlns:xlink="http://www.w3.org/1999/xlink" x="0px" y="0px" viewBox="0 0 1000 1000" enable-background="new 0 0 1000 1000" xml:space="preserve">
<metadata> Svg Vector Icons : http://www.onlinewebfonts.com/icon </metadata>
<g><g transform="translate(0.000000,511.000000) scale(0.100000,-0.100000)"><path fill="#ffffff" d="M5275.6,3639.8c-91.9-26.5-214.4-136.8-257.2-230.7c-22.5-49-38.8-130.7-38.8-200.1v-118.4h128.6c69.4,0,271.5,6.1,449.2,14.3l320.5,12.2v65.3C5877.9,3507.1,5583.9,3731.7,5275.6,3639.8z"/><path fill="#ffffff" d="M683.9,2814.9c-100-34.7-189.9-120.4-238.9-224.6c-36.7-77.6-38.8-175.6-38.8-1943.7v-1864H304.2c-83.7,0-114.3-10.2-153.1-51c-49-49-51-57.2-51-373.6c0-394,8.2-412.4,189.9-428.8l116.4-8.2v-95.9c2-183.8,128.6-355.3,304.2-408.3c42.9-12.3,198-22.5,343-22.5h265.4l12.2,159.2c34.7,426.7,300.1,822.8,686,1016.8c165.4,81.7,296,110.2,518.6,110.2c161.3,0,230.7-10.2,357.3-53.1c469.6-157.2,796.3-577.8,835-1073.9l12.2-159.2h1218.9H6178l12.2,149c44.9,520.6,406.3,963.7,900.4,1106.6c167.4,49,526.7,34.7,694.2-26.5c265.4-96,514.5-310.3,655.4-563.5c83.7-151.1,153.1-402.2,153.1-557.4v-108.2h298.1c369.6,0,459.4,20.4,571.7,134.8c89.8,89.8,130.7,187.8,130.7,316.5v75.5l116.4,8.2c181.7,16.3,189.9,34.7,189.9,428.8c0,316.5-2,324.6-51,373.6c-38.8,40.8-69.4,51-153.1,51h-102.1v463.5v465.5l-1568,1566l-1566,1568H3611.7C1247.4,2843.5,749.2,2839.5,683.9,2814.9z M7531.7,1263.3C8599.5,195.5,8762.8,24,8744.4-6.6c-22.5-34.7-132.7-36.7-1857.9-36.7H5051l-6.1,1253.6c-4.1,990.2,0,1257.7,20.4,1272c14.3,8.2,298.1,16.3,628.8,16.3h602.3L7531.7,1263.3z M2866.5,1977.9c51-49,51-55.1,51-408.3v-357.3h363.4c471.6,0,443,24.5,443-390c0-261.3-6.1-308.3-36.7-338.9c-30.6-32.7-85.8-36.7-402.2-42.9l-367.5-6.1V77.1c0-465.5,24.5-436.9-387.9-436.9c-412.4,0-387.9-28.6-387.9,436.9v357.3l-369.5,6.1c-336.9,6.1-371.6,10.2-398.1,44.9c-22.5,30.6-28.6,114.3-28.6,347.1c0,255.2,6.1,310.3,34.7,343c28.6,32.7,69.4,36.7,398.1,36.7h363.4v357.3c0,353.2,0,359.3,51,408.3c47,49,59.2,51,336.9,51C2807.3,2028.9,2819.5,2026.9,2866.5,1977.9z"/><path fill="#ffffff" d="M2331.5-1595.1c-477.7-104.1-804.4-581.9-724.8-1057.6c83.7-488,508.4-820.8,994.3-784c667.6,51,1057.6,747.3,761.5,1357.7c-63.3,132.7-243,314.4-381.8,390c-124.5,65.3-347.1,124.5-461.4,122.5C2486.7-1566.5,2401-1580.8,2331.5-1595.1z"/><path fill="#ffffff" d="M7225.4-1586.9c-459.4-77.6-818.7-545.1-767.7-1002.5c83.7-728.9,861.6-1088.2,1476.1-679.9c128.6,85.8,271.5,271.5,332.8,432.8c200.1,532.9-126.6,1122.9-688,1241.3C7423.5-1562.4,7386.7-1560.3,7225.4-1586.9z"/></g></g>
</svg>