<?xml version="1.0" encoding="utf-8"?>
<!-- Svg Vector Icons : http://www.onlinewebfonts.com/icon -->
<!DOCTYPE svg PUBLIC "-//W3C//DTD SVG 1.1//EN" "http://www.w3.org/Graphics/SVG/1.1/DTD/svg11.dtd">
<svg version="1.1" xmlns="http://www.w3.org/2000/svg" xmlns:xlink="http://www.w3.org/1999/xlink" x="0px" y="0px" viewBox="0 0 1000 1000" enable-background="new 0 0 1000 1000" xml:space="preserve">
<metadata> Svg Vector Icons : http://www.onlinewebfonts.com/icon </metadata>
<g><g transform="matrix(1 0 0 -1 0 1536)"><path fill="#ffffff" d="M867.5,1158.5c0,11.1-4,20.6-12.1,28.7c-8.1,8.1-17.7,12.1-28.7,12.1s-20.6-4-28.7-12.1c-8.1-8.1-12.1-17.7-12.1-28.7s4-20.6,12.1-28.7c8.1-8.1,17.7-12.1,28.7-12.1s20.6,4,28.7,12.1C863.5,1137.9,867.5,1147.4,867.5,1158.5z M949.2,1158.5c0-26.4-7.5-50-22.6-70.8c-15.1-20.8-34.8-35.7-59-44.7V791c0-67.6-28-125.4-83.9-173.2C727.7,569.9,660.4,546,581.7,546c-78.7,0-146,23.9-201.9,71.8c-55.9,47.9-83.9,105.6-83.9,173.2v84.2c-69.8,8.5-128,35.7-174.8,81.7c-46.8,45.9-70.2,99.5-70.2,160.8v326.7c0,11.1,4,20.6,12.1,28.7s17.7,12.1,28.7,12.1c2.6,0,6-0.4,10.2-1.3c7.2,12.8,17.2,23,30,30.6c12.8,7.7,26.6,11.5,41.5,11.5c22.5,0,41.8-8,57.7-23.9c16-16,23.9-35.2,23.9-57.7s-8-41.8-23.9-57.7c-16-16-35.2-23.9-57.7-23.9c-14,0-27.6,3.8-40.8,11.5v-256.5c0-45.1,20-83.6,60-115.5c40-31.9,88-47.9,144.2-47.9c56.1,0,104.2,16,144.2,47.9c40,31.9,60,70.4,60,115.5v256.5c-13.2-7.7-26.8-11.5-40.8-11.5c-22.5,0-41.8,8-57.7,23.9c-15.9,16-23.9,35.2-23.9,57.7s8,41.8,23.9,57.7c16,16,35.2,23.9,57.7,23.9c14.9,0,28.7-3.8,41.5-11.5c12.8-7.7,22.8-17.9,30-30.6c4.3,0.9,7.7,1.3,10.2,1.3c11.1,0,20.6-4,28.7-12.1c8.1-8.1,12.1-17.7,12.1-28.7v-326.7c0-61.3-23.4-114.8-70.2-160.8c-46.8-45.9-105.1-73.2-174.8-81.7V791c0-45.1,20-83.6,60-115.5c40-31.9,88-47.9,144.2-47.9s104.2,16,144.2,47.9c40,31.9,60,70.4,60,115.5v252c-24.2,8.9-43.9,23.8-59,44.7c-15.1,20.8-22.7,44.4-22.7,70.8c0,34,11.9,63,35.7,86.8s52.7,35.7,86.8,35.7s63-11.9,86.8-35.7C937.3,1221.5,949.2,1192.5,949.2,1158.5z"/></g></g>
</svg>