<?xml version="1.0" encoding="utf-8"?>
<!-- Svg Vector Icons : http://www.onlinewebfonts.com/icon -->
<!DOCTYPE svg PUBLIC "-//W3C//DTD SVG 1.1//EN" "http://www.w3.org/Graphics/SVG/1.1/DTD/svg11.dtd">
<svg version="1.1" xmlns="http://www.w3.org/2000/svg" xmlns:xlink="http://www.w3.org/1999/xlink" x="0px" y="0px" viewBox="0 0 1000 1000" enable-background="new 0 0 1000 1000" xml:space="preserve">
<metadata> Svg Vector Icons : http://www.onlinewebfonts.com/icon </metadata>
<g><path fill="#ffffff" d="M925.2,779.9l-95-139.9l0,0L640,360V80h35c19.3,0,35-15.7,35-35c0-19.3-15.7-35-35-35h-35H360h-35c-19.3,0-35,15.7-35,35c0,19.3,15.7,35,35,35h35v280L169.8,640l0,0l-95,139.9C5.5,895.5,59,990,193.8,990l0,0h612.5C941,990,994.5,895.5,925.2,779.9z M417.9,399.3C425.8,387.7,430,374,430,360V80h140v280c0,14,4.2,27.7,12.1,39.3L745.6,640H254.4L417.9,399.3z"/></g>
</svg>