<?xml version="1.0" encoding="utf-8"?>
<!-- Svg Vector Icons : http://www.onlinewebfonts.com/icon -->
<!DOCTYPE svg PUBLIC "-//W3C//DTD SVG 1.1//EN" "http://www.w3.org/Graphics/SVG/1.1/DTD/svg11.dtd">
<svg version="1.1" xmlns="http://www.w3.org/2000/svg" xmlns:xlink="http://www.w3.org/1999/xlink" x="0px" y="0px" viewBox="0 0 1000 1000" enable-background="new 0 0 1000 1000" xml:space="preserve">
<metadata> Svg Vector Icons : http://www.onlinewebfonts.com/icon </metadata>
<g><path fill="#ffffff" d="M418.3,173.3c-43.1,0-84.7,6.7-123.7,20.1c-36.5,12.5-69,30.1-96.5,52.4c-51.1,41.3-79.2,94.3-79.2,149c0,30.6,8.6,60.3,25.4,88.4c17.6,29.2,44.2,56,76.8,77.4c25.9,17,43.3,44.2,47.9,74.8c0.8,5.1,1.4,10.2,1.8,15.4c2.3-2.2,4.6-4.3,6.9-6.6c20.5-20.4,48.2-31.7,76.9-31.7c4.6,0,9.1,0.3,13.7,0.9c16.5,2.1,33.3,3.2,50,3.2c43.1,0,84.7-6.7,123.7-20.1c36.5-12.5,69-30.1,96.5-52.4c51.1-41.3,79.2-94.3,79.2-149c0-54.8-28.1-107.7-79.2-149C611,223.6,578.5,206,542,193.4C503.1,180.1,461.4,173.4,418.3,173.3L418.3,173.3z M418.3,64.4L418.3,64.4c225.5,0,408.3,147.9,408.3,330.4c0,182.5-182.8,330.4-408.3,330.4c-21.7,0-42.9-1.4-63.7-4c-87.7,87.3-189,103.1-290.2,105.3v-21.4c54.7-26.7,98.7-75.3,98.7-130.8c0-7.7-0.6-15.3-1.7-22.8C69.1,591.2,10,498.6,10,394.9C10,212.4,192.8,64.5,418.3,64.4L418.3,64.4z M857.3,805.1c0,47.6,30.9,89.2,78.3,112.1v18.3c-87.7-2-168.3-15.4-244.3-90.3c-18,2.3-36.4,3.5-55.2,3.5c-81.2,0-156-21.9-215.7-58.8c123.1-0.4,239.2-39.8,327.4-111.2c44.4-35.9,79.4-78.1,104.1-125.4c26.2-50.1,39.5-103.4,39.5-158.6c0-8.9-0.4-17.7-1.1-26.5c61.7,51,99.7,120.5,99.7,197.1c0,88.9-51.2,168.2-131.2,220.2C857.8,791.9,857.3,798.5,857.3,805.1L857.3,805.1z"/></g>
</svg>