<?xml version="1.0" encoding="utf-8"?>
<!-- Svg Vector Icons : http://www.onlinewebfonts.com/icon -->
<!DOCTYPE svg PUBLIC "-//W3C//DTD SVG 1.1//EN" "http://www.w3.org/Graphics/SVG/1.1/DTD/svg11.dtd">
<svg version="1.1" xmlns="http://www.w3.org/2000/svg" xmlns:xlink="http://www.w3.org/1999/xlink" x="0px" y="0px" viewBox="0 0 1000 1000" enable-background="new 0 0 1000 1000" xml:space="preserve">
<metadata> Svg Vector Icons : http://www.onlinewebfonts.com/icon </metadata>
<g><path fill="#ffffff" d="M701.7,864.4v-62.9h-63.1v-62.8h63.1v-62.9h63.1v62.9h63.1v62.8h-63.1v62.9H701.7L701.7,864.4z M512.6,990C315,990,71.2,937.7,71.2,751.3c0-186.3,301.5-227.5,301.5-227.5l12.6,25.1c0,0-276.3,37-276.3,202.3s235.4,201,403.5,201c168.1,0,378.3-37.7,378.3-188.4c0-150.8-264.8-213.6-264.8-213.6l12.6-25.1c0,0,290.1,69.1,290.1,238.8C928.7,933.5,710.1,990,512.6,990L512.6,990z M588.3,726.2c10.5-33.5,12.6-163.3,12.6-163.3h25.2c0,0,0,115.2,0,150.8S500,939.8,500,939.8S386.5,745.1,386.5,713.7c0-31.4,0-150.8,0-150.8h25.3c0,0,2.1,33.5,0,75.4c-2.1,41.8,37.8,138.2,37.8,138.2l25.3-113l-25.3-50.3H563l-25.2,50.3l25.2,113C563,776.4,577.7,759.7,588.3,726.2L588.3,726.2z M512.6,588C397,588,273,405.8,273,248.7C273,102.1,367.6,10,500,10c132.4,0,239.6,100.5,239.6,238.7C739.6,386.9,628.2,588,512.6,588L512.6,588z M701.7,273.8c-2.1-46.1-73.6-60.7-113.5-75.4c-39.9-14.7-88.3-50.3-88.3-50.3s-48.4,39.8-88.3,50.3c-42.8,11.2-88.3,35.6-88.3,75.4c0,96.3,54.6,276.4,189.1,276.4C647.1,550.3,703.8,319.9,701.7,273.8L701.7,273.8z"/></g>
</svg>