<?xml version="1.0" encoding="utf-8"?>
<!-- Svg Vector Icons : http://www.onlinewebfonts.com/icon -->
<!DOCTYPE svg PUBLIC "-//W3C//DTD SVG 1.1//EN" "http://www.w3.org/Graphics/SVG/1.1/DTD/svg11.dtd">
<svg version="1.1" xmlns="http://www.w3.org/2000/svg" xmlns:xlink="http://www.w3.org/1999/xlink" x="0px" y="0px" viewBox="0 0 1000 1000" enable-background="new 0 0 1000 1000" xml:space="preserve">
<metadata> Svg Vector Icons : http://www.onlinewebfonts.com/icon </metadata>
<g><g><path fill="#ffffff" d="M770.8,628.4c-24.1,30.6-84.3,71.9-155.4,6.2c0,0-37.3-41-8.9-76.8c5.3-6.6,9.4-14.5,10.4-24.1c-5.2,0.9-11.7,3.1-19.1,8.6c-21.6,16.2-52.3,61.3-67.9,183.2c35.3,8.7,60.8,32.1,60.8,59.8c0,30.1-29.9,55.2-69.8,61.9c-1.2,37.5-1.4,79-0.2,126.1l0.5,16.7h-42.4l0.5-16.7c1.2-47.1,0.9-88.5-0.2-126.1c-40-6.6-69.8-31.7-69.8-61.9c0-27.8,25.5-51.1,60.8-59.8c-15.6-122-46.3-167-68-183.2c-7.3-5.5-13.8-7.5-19.1-8.5c1,9.5,5.1,17.4,10.4,24.1c28.5,35.8-8.9,76.8-8.9,76.8c-71,65.7-131.3,24.4-155.5-6.2c-73-92.8,4.3-223.5,56.7-267.2c63-52.5,105.9-12.4,125.7,12.1c25.9,32.1,13.6,77.6-1.4,96.4c-9.5,12-16,22.5-20.4,31.8c8.9,1.8,19.1,5.5,30,13.2c39,27.8,65.8,90.5,80.3,187.7c14.5-97.2,41.3-160,80.3-187.7c10.9-7.7,21.1-11.4,30-13.2c-4.3-9.4-10.9-19.9-20.3-31.8c-15.1-18.8-27.3-64.3-1.4-96.4c19.8-24.6,62.7-64.6,125.7-12.1C766.6,404.9,843.9,535.6,770.8,628.4z M342.2,167.9C342.2,80.8,413,10,500.1,10c87,0,157.8,70.8,157.8,157.9c0,87-70.8,157.9-157.8,157.9C413,325.7,342.2,254.9,342.2,167.9z M377.3,167.9c0,67.7,55,122.8,122.8,122.8c67.7,0,122.7-55.1,122.7-122.8c0-67.7-55-122.8-122.7-122.8C432.3,45.1,377.3,100.2,377.3,167.9z M482.5,256.5c0,9.7,7.9,17.5,17.5,17.5c9.7,0,17.6-7.9,17.6-17.5v-71.1h71c9.7,0,17.5-7.9,17.5-17.5c0-9.7-7.9-17.5-17.5-17.5h-71V79.3c0-9.7-7.9-17.5-17.6-17.5c-9.7,0-17.5,7.9-17.5,17.5v71.1h-71.1c-9.7,0-17.5,7.8-17.5,17.5c0,9.7,7.9,17.5,17.5,17.5h71.1V256.5z"/></g><g></g><g></g><g></g><g></g><g></g><g></g><g></g><g></g><g></g><g></g><g></g><g></g><g></g><g></g><g></g></g>
</svg>